<svg width="456" height="500" viewBox="0 0 456 500" fill="none" xmlns="http://www.w3.org/2000/svg">
<path opacity="0.5" d="M424.026 109.017C424.026 143.822 395.603 160.28 360.552 145.758C325.57 131.285 297.146 91.349 297.146 56.5443C297.146 21.7397 325.57 5.28137 360.621 19.8035C395.671 34.2771 424.026 74.2613 424.026 109.017Z" fill="url(#paint0_linear_2538_2394)"/>
<path opacity="0.07" d="M451.356 94.495C451.356 129.3 422.933 145.758 387.882 131.236C352.9 116.762 324.477 76.8265 324.477 42.0219C324.477 7.21728 352.9 -9.24109 387.951 5.281C423.001 19.7547 451.356 59.7388 451.356 94.495Z" fill="url(#paint1_linear_2538_2394)"/>
<path opacity="0.2" d="M127.221 192.277L0 140.239V187.194L127.29 239.232L127.221 192.277Z" fill="url(#paint2_linear_2538_2394)"/>
<path fill-rule="evenodd" clip-rule="evenodd" d="M25.8277 166.573C25.8277 170.445 22.6164 172.236 18.5852 170.639C14.6224 168.993 11.3428 164.54 11.3428 160.667C11.3428 156.794 14.5541 155.003 18.5852 156.601C22.6164 158.247 25.8277 162.7 25.8277 166.573Z" fill="#F2994A"/>
<path opacity="0.15" d="M32.3867 165.121L73.9968 182.112V188.695L32.3867 171.704V165.121Z" fill="white"/>
<path opacity="0.15" d="M32.5908 178.384L114.103 211.736V218.32L32.5908 184.967V178.384Z" fill="white"/>
<path opacity="0.05" d="M328.097 239.619L455.933 291.899V486.93L328.097 434.699V239.619Z" fill="url(#paint3_linear_2538_2394)"/>
<path opacity="0.3" d="M434.617 304.968L306.712 252.688V447.72L434.548 500L434.617 304.968ZM348.39 282.217L391.094 299.643V307.388L348.39 290.204V282.217Z" fill="url(#paint4_linear_2538_2394)"/>
<path opacity="0.15" d="M319.079 376.271L421.772 418.24V424.824L319.079 382.855V376.271Z" fill="white"/>
<path opacity="0.15" d="M326.321 392.053L414.666 428.164V434.748L326.321 398.636V392.053Z" fill="white"/>
<path fill-rule="evenodd" clip-rule="evenodd" d="M399.224 359.861C399.224 344.42 386.448 326.654 370.733 320.216C355.018 313.778 342.241 321.087 342.241 336.529C342.241 351.971 355.018 369.736 370.733 376.174C386.448 382.613 399.224 375.303 399.224 359.861Z" fill="#F2994A"/>
<path opacity="0.05" d="M168.899 82.6357L296.736 134.915V329.947L168.899 277.667V82.6357Z" fill="url(#paint5_linear_2538_2394)"/>
<path opacity="0.3" d="M275.419 148.13L147.515 95.8506V290.882L275.351 343.162L275.419 148.13ZM189.193 125.379L231.896 142.805V150.55L189.193 133.366V125.379Z" fill="url(#paint6_linear_2538_2394)"/>
<path opacity="0.15" d="M159.881 219.24L262.574 261.209V267.792L159.881 225.824V219.24Z" fill="white"/>
<path opacity="0.15" d="M167.055 235.069L255.331 271.181V277.764L166.986 241.653L167.055 235.069Z" fill="white"/>
<path fill-rule="evenodd" clip-rule="evenodd" d="M240.027 202.878C240.027 187.436 227.25 169.671 211.536 163.233C195.821 156.795 183.044 164.104 183.044 179.546C183.044 194.988 195.821 212.753 211.536 219.191C227.25 225.629 240.027 218.32 240.027 202.878Z" fill="#F2C94C"/>
<path opacity="0.3" d="M240.027 311.649L36.6914 228.485L36.7597 303.565L222.126 379.37L240.096 398.2L240.027 311.649Z" fill="url(#paint7_linear_2538_2394)"/>
<path fill-rule="evenodd" clip-rule="evenodd" d="M15.0322 257.772V237.393L91.7614 268.76V289.14L15.0322 257.772Z" fill="#F2994A"/>
<path opacity="0.15" d="M187.758 308.551L143.21 290.35V296.933L187.758 315.134V308.551Z" fill="white"/>
<path opacity="0.15" d="M187.757 321.766L101.872 286.671V293.254L187.757 328.349V321.766Z" fill="white"/>
<path opacity="0.15" d="M187.758 334.933L83.7666 292.383V298.966L187.826 341.516L187.758 334.933Z" fill="white"/>
<path fill-rule="evenodd" clip-rule="evenodd" d="M198.758 319.927C198.758 326.123 203.951 333.239 210.305 335.852C216.66 338.466 221.852 335.562 221.852 329.366C221.852 323.17 216.66 316.054 210.305 313.44C203.883 310.826 198.69 313.731 198.758 319.927Z" fill="#F2994A"/>
<path opacity="0.2" d="M80.6234 86.3626C84.7229 88.0084 88.0025 92.0746 88.0025 95.4147V110.179L101.804 115.794C105.904 117.44 109.183 121.506 109.183 124.846C109.183 128.186 105.904 129.542 101.804 127.896L88.0025 122.281V137.045C88.0025 140.385 84.7229 141.74 80.6234 140.094C76.5239 138.448 73.2443 134.382 73.2443 131.042V116.278L59.4426 110.663C55.3431 109.017 52.0635 104.951 52.0635 101.611C52.0635 98.2707 55.3431 96.9153 59.4426 98.5611L73.2443 104.176V89.4122C73.2443 86.0721 76.5239 84.7167 80.6234 86.3626Z" fill="url(#paint8_linear_2538_2394)"/>
<defs>
<linearGradient id="paint0_linear_2538_2394" x1="11697.6" y1="813.146" x2="938.652" y2="11890.9" gradientUnits="userSpaceOnUse">
<stop stop-color="white"/>
<stop offset="1" stop-color="white" stop-opacity="0"/>
</linearGradient>
<linearGradient id="paint1_linear_2538_2394" x1="11724.9" y1="798.624" x2="965.982" y2="11876.4" gradientUnits="userSpaceOnUse">
<stop stop-color="white"/>
<stop offset="1" stop-color="white" stop-opacity="0"/>
</linearGradient>
<linearGradient id="paint2_linear_2538_2394" x1="7554.78" y1="3329.37" x2="5979.71" y2="7181.12" gradientUnits="userSpaceOnUse">
<stop stop-color="white"/>
<stop offset="1" stop-color="white" stop-opacity="0"/>
</linearGradient>
<linearGradient id="paint3_linear_2538_2394" x1="7715.26" y1="3495.47" x2="602.626" y2="20888.4" gradientUnits="userSpaceOnUse">
<stop stop-color="white"/>
<stop offset="1" stop-color="white" stop-opacity="0"/>
</linearGradient>
<linearGradient id="paint4_linear_2538_2394" x1="7698.07" y1="3506.56" x2="585.418" y2="20900.5" gradientUnits="userSpaceOnUse">
<stop stop-color="white"/>
<stop offset="1" stop-color="white" stop-opacity="0"/>
</linearGradient>
<linearGradient id="paint5_linear_2538_2394" x1="7556.18" y1="3337.99" x2="443.555" y2="20730.9" gradientUnits="userSpaceOnUse">
<stop stop-color="white"/>
<stop offset="1" stop-color="white" stop-opacity="0"/>
</linearGradient>
<linearGradient id="paint6_linear_2538_2394" x1="7538.88" y1="3349.72" x2="426.22" y2="20743.6" gradientUnits="userSpaceOnUse">
<stop stop-color="white"/>
<stop offset="1" stop-color="white" stop-opacity="0"/>
</linearGradient>
<linearGradient id="paint7_linear_2538_2394" x1="14336.6" y1="5536.82" x2="8031.96" y2="12504.5" gradientUnits="userSpaceOnUse">
<stop stop-color="white"/>
<stop offset="1" stop-color="white" stop-opacity="0"/>
</linearGradient>
<linearGradient id="paint8_linear_2538_2394" x1="3677.29" y1="2043.96" x2="1822.77" y2="4109.73" gradientUnits="userSpaceOnUse">
<stop stop-color="white"/>
<stop offset="1" stop-color="white" stop-opacity="0"/>
</linearGradient>
</defs>
</svg>
