<svg width="500" height="500" viewBox="0 0 500 500" fill="none" xmlns="http://www.w3.org/2000/svg">
<path opacity="0.2" d="M222.506 131.797L100.465 58.4697L99.8984 125.662L221.939 198.99L222.506 131.797Z" fill="url(#paint0_linear_2538_2226)"/>
<path opacity="0.15" d="M131.556 93.4189L168.253 115.495L168.196 123.556L131.499 101.48L131.556 93.4189Z" fill="white"/>
<path opacity="0.15" d="M131.441 109.602L209.593 156.582L209.536 164.763L131.385 117.783L131.441 109.602Z" fill="white"/>
<path fill-rule="evenodd" clip-rule="evenodd" d="M125.042 95.8857C124.986 101.42 121.871 104.067 118.02 101.721C114.169 99.4348 111.111 93.0584 111.168 87.5243C111.224 81.9901 114.339 79.3433 118.19 81.6893C122.041 83.9752 125.099 90.3515 125.042 95.8857Z" fill="#F2C94C"/>
<path opacity="0.2" d="M500 432.808L378.016 359.48L377.449 426.672L499.49 500L500 432.808Z" fill="url(#paint1_linear_2538_2226)"/>
<path opacity="0.15" d="M409.106 394.431L445.804 416.507L445.747 424.568L409.05 402.491L409.106 394.431Z" fill="white"/>
<path opacity="0.15" d="M408.993 410.611L487.145 457.592L487.088 465.773L408.937 418.792L408.993 410.611Z" fill="white"/>
<path fill-rule="evenodd" clip-rule="evenodd" d="M402.594 396.895C402.538 402.43 399.423 405.076 395.572 402.73C391.721 400.445 388.663 394.068 388.72 388.534C388.776 383 391.891 380.353 395.742 382.699C399.593 384.985 402.651 391.361 402.594 396.895Z" fill="#F2C94C"/>
<path opacity="0.1" d="M357.686 2.64678C334.693 7.39895 282.989 13.5347 260.449 0C260.619 95.7652 282.705 231.653 354.911 343.72C428.249 319.117 452.317 211.02 454.016 116.398C431.477 102.803 380.395 34.8893 357.686 2.64678Z" fill="url(#paint2_linear_2538_2226)"/>
<path opacity="0.3" d="M329.596 22.4974C306.603 27.2495 254.899 33.3852 232.359 19.8506C232.529 115.616 254.616 251.504 326.821 363.571C400.159 338.968 424.227 230.811 425.926 136.249C403.387 122.654 352.305 54.7399 329.596 22.4974Z" fill="url(#paint3_linear_2538_2226)"/>
<path opacity="0.4" d="M425.982 136.188C403.386 122.593 352.361 54.7396 329.652 22.4971L326.877 363.51C400.158 338.967 424.227 230.81 425.982 136.188Z" fill="url(#paint4_linear_2538_2226)"/>
<path opacity="0.1" d="M206.988 203.441L320.648 269.912L320.704 491.7L207.045 425.289L206.988 203.441Z" fill="url(#paint5_linear_2538_2226)"/>
<path opacity="0.2" d="M221.713 333.072L307.396 383.181L307.623 462.704L221.939 412.596L221.713 333.072Z" fill="url(#paint6_linear_2538_2226)"/>
<path opacity="0.15" d="M223.242 280.137L262.884 303.296V311.477L223.242 288.318V280.137Z" fill="white"/>
<path opacity="0.15" d="M223.411 296.379L263.053 319.538V327.719L223.411 304.56V296.379Z" fill="white"/>
<path opacity="0.15" d="M223.354 312.02L298.561 355.992V364.173L223.354 320.2V312.02Z" fill="white"/>
<path opacity="0.2" d="M206.988 203.441L320.648 269.912L320.761 308.23L207.045 241.82L206.988 203.441Z" fill="url(#paint7_linear_2538_2226)"/>
<path opacity="0.2" d="M235.418 239.474C235.418 245.249 232.19 248.076 228.225 245.73C224.261 243.384 220.977 236.827 220.977 230.992C220.977 225.217 224.205 222.39 228.169 224.736C232.19 227.082 235.418 233.699 235.418 239.474Z" fill="white"/>
<path fill-rule="evenodd" clip-rule="evenodd" d="M274.493 332.35L274.38 299.386L351.455 344.441L351.569 377.406L274.493 332.35Z" fill="#F2C94C"/>
<path opacity="0.3" d="M186.488 193.155L17.9521 89.8701L18.0088 183.169L171.65 277.37L186.544 300.77L186.488 193.155Z" fill="url(#paint8_linear_2538_2226)"/>
<path fill-rule="evenodd" clip-rule="evenodd" d="M0 126.203V100.878L63.5972 139.858V165.183L0 126.203Z" fill="#F2994A"/>
<path opacity="0.15" d="M143.165 189.304L106.241 166.687V174.867L143.165 197.485V189.304Z" fill="white"/>
<path opacity="0.15" d="M143.164 205.727L71.9785 162.115V170.296L143.164 213.908V205.727Z" fill="white"/>
<path opacity="0.15" d="M143.165 222.088L56.915 169.213V177.394L143.165 230.269V222.088Z" fill="white"/>
<path fill-rule="evenodd" clip-rule="evenodd" d="M152.226 203.441C152.226 211.141 156.53 219.983 161.796 223.232C167.063 226.48 171.367 222.871 171.367 215.171C171.367 207.471 167.063 198.629 161.796 195.38C156.53 192.132 152.226 195.741 152.226 203.441Z" fill="#F2994A"/>
<path opacity="0.2" d="M132.234 289.281C135.632 291.326 138.351 296.379 138.351 300.53V318.877L149.79 325.854C153.188 327.9 155.906 332.953 155.906 337.103C155.906 341.254 153.188 342.938 149.79 340.893L138.351 333.915V352.262C138.351 356.413 135.632 358.097 132.234 356.052C128.837 354.007 126.118 348.954 126.118 344.803V326.456L114.679 319.418C111.281 317.373 108.562 312.32 108.562 308.169C108.562 304.019 111.281 302.334 114.679 304.379L126.118 311.357V293.01C126.118 288.92 128.837 287.236 132.234 289.281Z" fill="url(#paint9_linear_2538_2226)"/>
<defs>
<linearGradient id="paint0_linear_2538_2226" x1="7401.04" y1="4525.88" x2="4520.16" y2="9318.88" gradientUnits="userSpaceOnUse">
<stop stop-color="white"/>
<stop offset="1" stop-color="white" stop-opacity="0"/>
</linearGradient>
<linearGradient id="paint1_linear_2538_2226" x1="7676.2" y1="4828.85" x2="4796.98" y2="9619.06" gradientUnits="userSpaceOnUse">
<stop stop-color="white"/>
<stop offset="1" stop-color="white" stop-opacity="0"/>
</linearGradient>
<linearGradient id="paint2_linear_2538_2226" x1="4650.93" y1="3358.15" x2="15341.8" y2="12366.5" gradientUnits="userSpaceOnUse">
<stop stop-color="white"/>
<stop offset="1" stop-color="white" stop-opacity="0"/>
</linearGradient>
<linearGradient id="paint3_linear_2538_2226" x1="4622.64" y1="3377.65" x2="15313.6" y2="12385.5" gradientUnits="userSpaceOnUse">
<stop stop-color="white"/>
<stop offset="1" stop-color="white" stop-opacity="0"/>
</linearGradient>
<linearGradient id="paint4_linear_2538_2226" x1="5832.27" y1="14920.3" x2="4215.32" y2="15211.7" gradientUnits="userSpaceOnUse">
<stop stop-color="white"/>
<stop offset="1" stop-color="white" stop-opacity="0"/>
</linearGradient>
<linearGradient id="paint5_linear_2538_2226" x1="4906.31" y1="8828.41" x2="12165.1" y2="15460.1" gradientUnits="userSpaceOnUse">
<stop stop-color="white"/>
<stop offset="1" stop-color="white" stop-opacity="0"/>
</linearGradient>
<linearGradient id="paint6_linear_2538_2226" x1="3137.5" y1="508.075" x2="8255.51" y2="10782.8" gradientUnits="userSpaceOnUse">
<stop stop-color="white"/>
<stop offset="1" stop-color="white" stop-opacity="0"/>
</linearGradient>
<linearGradient id="paint7_linear_2538_2226" x1="4061.84" y1="1495.48" x2="7150.91" y2="9350.57" gradientUnits="userSpaceOnUse">
<stop stop-color="white"/>
<stop offset="1" stop-color="white" stop-opacity="0"/>
</linearGradient>
<linearGradient id="paint8_linear_2538_2226" x1="11871.5" y1="6685.35" x2="4350.03" y2="12229.6" gradientUnits="userSpaceOnUse">
<stop stop-color="white"/>
<stop offset="1" stop-color="white" stop-opacity="0"/>
</linearGradient>
<linearGradient id="paint9_linear_2538_2226" x1="3112.92" y1="2722.19" x2="893.673" y2="4371.04" gradientUnits="userSpaceOnUse">
<stop stop-color="white"/>
<stop offset="1" stop-color="white" stop-opacity="0"/>
</linearGradient>
</defs>
</svg>
