<svg width="500" height="500" viewBox="0 0 500 500" fill="none" xmlns="http://www.w3.org/2000/svg">
<path opacity="0.2" d="M165.935 199.074L51.3789 142.581V193.566L165.935 250.059V199.074Z" fill="url(#paint0_linear_2538_2289)"/>
<path fill-rule="evenodd" clip-rule="evenodd" d="M74.6329 171.179C74.6329 175.399 71.7519 177.333 68.1163 175.575C64.5493 173.816 61.5996 168.952 61.5996 164.733C61.5996 160.514 64.4807 158.58 68.1163 160.338C71.7519 162.096 74.6329 166.96 74.6329 171.179Z" fill="#F2C94C"/>
<path opacity="0.15" d="M80.6689 167.78L122.444 188.35V196.32L80.6689 175.809V167.78Z" fill="white"/>
<path opacity="0.15" d="M80.7373 184.892L154.136 221.05V229.02L80.7373 192.862V184.892Z" fill="white"/>
<path opacity="0.07" d="M255.934 34.459L384.346 97.8087V334.096L255.934 270.805V34.459Z" fill="url(#paint1_linear_2538_2289)"/>
<path opacity="0.3" d="M226.231 55.79L354.644 119.14V355.427L226.231 292.136V55.79Z" fill="url(#paint2_linear_2538_2289)"/>
<path opacity="0.15" d="M238.647 187.471L341.817 238.338V246.308L238.647 195.441V187.471Z" fill="white"/>
<path opacity="0.15" d="M245.85 206.868L334.545 250.645V258.615L245.85 214.838V206.868Z" fill="white"/>
<path fill-rule="evenodd" clip-rule="evenodd" d="M192.688 237.928V211.557L268.488 248.945V275.317L192.688 237.928Z" fill="#F2994A"/>
<path opacity="0.2" d="M457.127 232.302C451.228 224.274 443.065 223.219 442.722 223.16C441.899 223.043 441.418 223.688 441.418 224.625V245.84C441.418 253.048 438.537 257.677 432.844 259.67C432.295 259.846 431.952 260.373 431.952 261.076C431.952 271.273 432.158 315.05 432.227 328.704C432.227 330.99 434.079 333.685 436.342 334.799C448.552 340.835 483.605 358.123 483.605 358.123C492.934 362.752 498.902 359.881 499.931 350.387L500 308.369C500 301.981 498.697 295.418 494.581 289.968C492.248 286.862 489.505 284.459 486.624 283.052L462.683 271.273V251.583C462.752 243.847 460.831 237.401 457.127 232.302Z" fill="url(#paint3_linear_2538_2289)"/>
<path fill-rule="evenodd" clip-rule="evenodd" d="M399.918 242.968L426.671 256.153V330.931L399.918 317.745V242.968Z" fill="#F2C94C"/>
<path opacity="0.3" d="M204.143 100.68L0 0L0.0685965 90.8931L186.171 182.665L204.212 205.462L204.143 100.68Z" fill="url(#paint4_linear_2538_2289)"/>
<path opacity="0.15" d="M151.666 96.8697L106.941 74.835V82.805L151.666 104.84V96.8697Z" fill="white"/>
<path opacity="0.15" d="M151.667 112.869L40.8838 58.251V66.221L151.667 120.839V112.869Z" fill="white"/>
<path opacity="0.15" d="M151.667 128.868L18.041 62.9395V70.9094L151.667 136.838V128.868Z" fill="white"/>
<path fill-rule="evenodd" clip-rule="evenodd" d="M162.643 110.643C162.643 118.144 167.856 126.758 174.235 129.923C180.615 133.088 185.828 129.571 185.828 122.07C185.828 114.569 180.615 105.954 174.235 102.79C167.856 99.6253 162.643 103.141 162.643 110.643Z" fill="#F2994A"/>
<path opacity="0.3" d="M292.152 308.427L496.296 409.107L496.364 500L310.193 408.228L292.221 413.267L292.152 308.427Z" fill="url(#paint5_linear_2538_2289)"/>
<path opacity="0.15" d="M344.629 356.48L389.354 378.515V386.485L344.629 364.45V356.48Z" fill="white"/>
<path opacity="0.15" d="M344.629 372.422L425.367 412.213V420.183L344.629 380.392V372.422Z" fill="white"/>
<path opacity="0.15" d="M344.629 388.42L449.101 439.932V447.902L344.629 396.39V388.42Z" fill="white"/>
<path fill-rule="evenodd" clip-rule="evenodd" d="M333.654 359.353C333.654 366.855 328.441 370.371 322.062 367.206C315.682 364.042 310.469 355.427 310.469 347.926C310.469 340.425 315.682 336.909 322.062 340.073C328.441 343.238 333.586 351.852 333.654 359.353Z" fill="#F2C94C"/>
<path opacity="0.2" d="M221.498 292.839C225.613 294.832 228.906 299.754 228.906 303.798V321.672L242.762 328.47C246.878 330.462 250.171 335.385 250.171 339.429C250.171 343.472 246.878 345.113 242.762 343.121L228.906 336.323V354.197C228.906 358.24 225.613 359.881 221.498 357.889C217.382 355.896 214.089 350.973 214.089 346.93V329.056L200.233 322.258C196.117 320.265 192.824 315.343 192.824 311.299C192.824 307.256 196.117 305.615 200.233 307.607L214.089 314.405V296.531C214.021 292.488 217.382 290.788 221.498 292.839Z" fill="url(#paint6_linear_2538_2289)"/>
<path opacity="0.05" d="M290.163 178.739C231.307 113.338 273.905 89.6627 290.163 127.989C306.489 105.954 349.018 172 290.163 178.739Z" fill="url(#paint7_linear_2538_2289)"/>
<path opacity="0.3" d="M276.445 190.46C217.589 125.059 260.187 101.383 276.445 139.71C292.771 117.675 335.301 183.721 276.445 190.46Z" fill="white"/>
<defs>
<linearGradient id="paint0_linear_2538_2289" x1="6850.52" y1="3604.12" x2="4914.27" y2="7530.61" gradientUnits="userSpaceOnUse">
<stop stop-color="white"/>
<stop offset="1" stop-color="white" stop-opacity="0"/>
</linearGradient>
<linearGradient id="paint1_linear_2538_2289" x1="7676.13" y1="3979.48" x2="-266.787" y2="20087.9" gradientUnits="userSpaceOnUse">
<stop stop-color="white"/>
<stop offset="1" stop-color="white" stop-opacity="0"/>
</linearGradient>
<linearGradient id="paint2_linear_2538_2289" x1="7646.43" y1="4000.21" x2="-296.487" y2="20108.6" gradientUnits="userSpaceOnUse">
<stop stop-color="white"/>
<stop offset="1" stop-color="white" stop-opacity="0"/>
</linearGradient>
<linearGradient id="paint3_linear_2538_2289" x1="3379.24" y1="6239.6" x2="5714.13" y2="7285.55" gradientUnits="userSpaceOnUse">
<stop stop-color="white"/>
<stop offset="1" stop-color="white" stop-opacity="0"/>
</linearGradient>
<linearGradient id="paint4_linear_2538_2289" x1="14357.1" y1="6426.23" x2="6715.18" y2="13430" gradientUnits="userSpaceOnUse">
<stop stop-color="white"/>
<stop offset="1" stop-color="white" stop-opacity="0"/>
</linearGradient>
<linearGradient id="paint5_linear_2538_2289" x1="9308.31" y1="604.599" x2="11237.2" y2="18918" gradientUnits="userSpaceOnUse">
<stop stop-color="white"/>
<stop offset="1" stop-color="white" stop-opacity="0"/>
</linearGradient>
<linearGradient id="paint6_linear_2538_2289" x1="3830.84" y1="2664.72" x2="1580.52" y2="4743.42" gradientUnits="userSpaceOnUse">
<stop stop-color="white"/>
<stop offset="1" stop-color="white" stop-opacity="0"/>
</linearGradient>
<linearGradient id="paint7_linear_2538_2289" x1="3974.94" y1="2215.59" x2="1149.02" y2="5043.92" gradientUnits="userSpaceOnUse">
<stop stop-color="white"/>
<stop offset="1" stop-color="white" stop-opacity="0"/>
</linearGradient>
</defs>
</svg>
